<svg width="208" height="25" viewBox="0 0 208 25" fill="none" xmlns="http://www.w3.org/2000/svg">
<path fill-rule="evenodd" clip-rule="evenodd" d="M71.4413 19.5888C69.3098 19.6805 67.277 18.6949 66.0442 16.972L68.0351 15.1207C68.8862 16.1871 70.1943 16.7958 71.5672 16.7643C73.2043 16.7643 73.9659 16.2955 73.9659 15.2037C73.9659 14.2781 73.4921 13.8627 70.8895 13.2456C68.287 12.6285 66.5719 11.7859 66.5719 8.94957C66.5719 6.33279 68.7787 4.73068 71.5012 4.73068C73.4362 4.69879 75.2834 5.52878 76.5325 6.99144L74.5416 9.00891C73.7685 8.08085 72.6207 7.53795 71.4053 7.52548C69.9241 7.52548 69.4323 8.18412 69.4323 8.82497C69.4323 9.72689 70.032 10.0117 72.2148 10.5517C74.3976 11.0917 76.8263 11.869 76.8263 14.9961C76.8623 17.7374 75.2072 19.5888 71.4413 19.5888ZM84.902 19.5947C81.3166 19.5947 78.8487 16.8342 78.8487 12.18C78.8487 7.52586 81.3465 4.7298 84.9439 4.7298C88.5412 4.7298 90.9793 7.48431 90.9793 12.1385C90.9793 16.7927 88.4814 19.5947 84.902 19.5947ZM84.8829 7.43234C82.8774 7.43234 81.5445 9.11539 81.5445 12.1375C81.5445 15.1596 82.9397 16.8918 84.9452 16.8918C86.9508 16.8918 88.2837 15.2088 88.2837 12.1805C88.2837 9.15225 86.8761 7.43234 84.8643 7.43234H84.8829ZM100.403 20.2704C97.1898 20.2704 95.0228 17.8592 95.0228 13.6397V5.40555H97.6867V13.5794C97.6867 15.9183 98.7095 17.4011 100.403 17.4011C102.096 17.4011 103.142 15.9605 103.142 13.6216V5.40555H105.806V13.5794C105.806 17.8231 103.789 20.2704 100.403 20.2704ZM118.257 19.5947L113.368 11.8483C113.045 11.3221 112.605 10.6088 112.438 10.2464C112.438 10.7725 112.473 12.5557 112.473 13.345V19.5947H109.849V5.40555H112.397L117.113 12.9065C117.436 13.4326 117.875 14.1401 118.043 14.5084C118.043 13.9822 118.008 12.1991 118.008 11.4039V5.40555H120.632V19.5947H118.257ZM129.321 19.5947H125.349V5.40555H129.512C133.316 5.40555 136.132 7.31147 136.132 12.5031C136.132 17.49 132.744 19.5947 129.321 19.5947ZM129.464 8.10809H128.045V16.8919H129.365C132.18 16.8919 133.436 15.1186 133.436 12.5059C133.459 9.57403 132.296 8.114 129.464 8.114V8.10809ZM148.485 9.15478C148.071 8.16415 147.101 7.54201 146.052 7.59461C144.053 7.59461 142.915 9.48699 142.915 12.1624C142.915 14.8378 144.07 16.7302 146.07 16.7302C147.272 16.7302 147.971 16.1726 148.676 14.8972L150.918 16.3387C150.114 18.3842 148.141 19.6869 145.995 19.5896C142.527 19.5896 140.176 16.7065 140.176 12.1624C140.176 7.77851 142.608 4.73528 146.093 4.73528C148.207 4.63532 150.155 5.91044 150.958 7.92088L148.485 9.15478ZM155.002 19.5947V5.40555H157.689V16.8002H164.437V19.5947H155.002ZM171.838 19.5947C168.253 19.5947 165.785 16.8342 165.785 12.18C165.785 7.52586 168.282 4.7298 171.88 4.7298C175.477 4.7298 177.915 7.48431 177.915 12.1385C177.915 16.7927 175.417 19.5947 171.838 19.5947ZM171.819 7.43234C169.813 7.43234 168.48 9.11539 168.48 12.1375C168.48 15.1596 169.869 16.8918 171.881 16.8918C173.893 16.8918 175.219 15.2088 175.219 12.1805C175.219 9.15225 173.805 7.43234 171.8 7.43234H171.819ZM186.656 20.2704C183.448 20.2704 181.285 17.8592 181.285 13.6397V5.40555H183.944V13.5794C183.944 15.9183 184.965 17.4011 186.656 17.4011C188.346 17.4011 189.39 15.9605 189.39 13.6216V5.40555H192.067V13.5794C192.067 17.8231 190.037 20.2704 186.656 20.2704ZM200.757 19.5947H196.785V5.40555H200.948C204.752 5.40555 207.568 7.31575 207.568 12.4972C207.568 17.4859 204.18 19.5947 200.757 19.5947ZM200.87 8.10809H199.48V16.8919H200.801C203.615 16.8919 204.872 15.1174 204.872 12.5029C204.866 9.53953 203.703 8.10809 200.87 8.10809ZM55.2581 17.6013C55.1395 21.7949 51.5375 25 47.4075 25H28.5196C27.6535 24.9934 26.9557 24.2809 26.959 23.4064V2.88782C26.9229 2.1596 27.3396 1.48564 28.0034 1.1984C28.0034 1.1984 29.7361 7.73819e-05 33.3914 7.73819e-05C35.6367 -0.00789931 37.8418 0.600956 39.7705 1.76154C42.8083 3.55635 44.961 6.55552 45.7044 10.0289C46.3561 9.83825 47.0316 9.74342 47.7101 9.74733C49.7522 9.74803 51.707 10.5834 53.129 12.0631C54.551 13.5427 55.3191 15.5406 55.2581 17.6013ZM24.9315 3.9995C25.5822 11.0017 26.0567 17.3886 24.9315 24.3787C24.9315 24.7218 24.6189 24.9999 24.2333 24.9999C23.8477 24.9999 23.5351 24.7218 23.5351 24.3787C22.4912 17.455 22.9522 10.9413 23.5351 3.9995C23.5351 3.65642 23.8477 3.3783 24.2333 3.3783C24.6189 3.3783 24.9315 3.65642 24.9315 3.9995ZM20.9169 6.72292C21.6688 12.878 21.8924 18.2668 20.9034 24.4457C20.8537 24.7634 20.5442 25.0002 20.1785 25.0002C19.8129 25.0002 19.5034 24.7634 19.4537 24.4457C18.5799 18.3559 18.7763 12.8246 19.4537 6.72292C19.4537 6.36855 19.7813 6.08127 20.1853 6.08127C20.5894 6.08127 20.9169 6.36855 20.9169 6.72292ZM16.8639 6.02254C17.575 12.3534 17.8934 18.0344 16.8639 24.3832C16.8639 24.7239 16.5501 25.0001 16.1629 25.0001C15.7758 25.0001 15.462 24.7239 15.462 24.3832C14.4596 18.1358 14.7847 12.2818 15.462 6.02254C15.462 5.68178 15.7758 5.40555 16.1629 5.40555C16.5501 5.40555 16.8639 5.68178 16.8639 6.02254ZM12.9996 8.0615C13.6432 13.4951 13.6381 19.0051 12.9843 24.4371C12.9574 24.7564 12.7252 24.9999 12.4476 24.9999C12.17 24.9999 11.9377 24.7564 11.9108 24.4371C11.3054 19.001 11.3054 13.4976 11.9108 8.0615C11.9108 7.71402 12.1545 7.43234 12.4552 7.43234C12.7559 7.43234 12.9996 7.71402 12.9996 8.0615ZM9.45834 12.0498C10.5694 16.3292 10.0613 20.0789 9.38382 24.4113C9.38382 24.7364 9.08051 24.9999 8.70636 24.9999C8.33222 24.9999 8.02891 24.7364 8.02891 24.4113C7.4734 20.1495 6.97886 16.2704 8.02891 12.0498C8.06477 11.7302 8.37401 11.4864 8.74362 11.4864C9.11324 11.4864 9.42248 11.7302 9.45834 12.0498ZM5.58081 11.3733C6.35059 15.7413 6.0957 19.4531 5.56042 23.8387C5.50944 24.483 4.54083 24.4889 4.48985 23.8387C4.00555 19.5122 3.80163 15.6821 4.46946 11.3733C4.5072 11.051 4.74458 10.8106 5.02513 10.8106C5.30568 10.8106 5.54306 11.051 5.58081 11.3733ZM1.52978 13.4294C2.32718 16.3656 2.04093 18.7371 1.47867 21.703C1.47867 22.0312 1.24981 22.2973 0.967514 22.2973C0.685213 22.2973 0.456363 22.0312 0.456363 21.703C-0.0241195 18.7787 -0.249026 16.3477 0.410359 13.4294C0.437958 13.094 0.680282 12.8379 0.97007 12.8379C1.25986 12.8379 1.50218 13.094 1.52978 13.4294Z" fill="white"/>
</svg>
